<?xml version="1.0" encoding="iso-8859-1"?>
<!-- Generator: Adobe Illustrator 19.0.0, SVG Export Plug-In . SVG Version: 6.00 Build 0)  -->
<svg version="1.1" id="Layer_1" xmlns="http://www.w3.org/2000/svg" xmlns:xlink="http://www.w3.org/1999/xlink" x="0px" y="0px"
	 viewBox="0 0 512 512" style="enable-background:new 0 0 512 512;" xml:space="preserve">
<g>
	<circle style="fill:#A0EBFF;" cx="256" cy="256" r="256"/>
	<path style="fill:#FFFFFF;" d="M367.319,139.29c-24.172-24.172-63.36-24.172-87.531,0l-72.945,72.945l-72.94,72.945
		c-24.172,24.172-24.172,63.36,0,87.531c24.172,24.172,63.36,24.172,87.532,0l72.945-72.945l72.945-72.945
		C391.491,202.65,391.491,163.461,367.319,139.29z"/>
	<path style="fill:#FC611F;" d="M367.319,139.29c-24.172-24.172-63.36-24.172-87.531,0l-72.945,72.945l87.532,87.532l72.945-72.945
		C391.491,202.65,391.491,163.461,367.319,139.29z"/>
	<path style="fill:#E34E10;" d="M366.203,140.411L250.609,256l34.058,34.058l72.945-72.945
		C378.44,196.285,381.271,164.321,366.203,140.411z"/>
	<path style="fill:#B6F0FF;" d="M250.609,256L135.02,371.589c23.916,15.068,55.875,12.237,76.708-8.591l72.945-72.945L250.609,256z"
		/>
</g>
<g>
</g>
<g>
</g>
<g>
</g>
<g>
</g>
<g>
</g>
<g>
</g>
<g>
</g>
<g>
</g>
<g>
</g>
<g>
</g>
<g>
</g>
<g>
</g>
<g>
</g>
<g>
</g>
<g>
</g>
</svg>
